<?xml version="1.0" encoding="UTF-8"?>
<svg width="200px" height="198px" viewBox="0 0 200 198" version="1.1" xmlns="http://www.w3.org/2000/svg" xmlns:xlink="http://www.w3.org/1999/xlink">
    <title>编组 2</title>
    <g id="LOGO" stroke="none" stroke-width="1" fill="none" fill-rule="evenodd">
        <g id="2023-04-21__4月单品豆上新推荐" transform="translate(-57, -0)" fill="#000000" fill-rule="nonzero">
            <g id="编组" transform="translate(156.5184, 152.4838) scale(-1, 1) rotate(-180) translate(-156.5184, -152.4838)translate(0, 0)">
                <g id="编组-2" transform="translate(57.0631, 107.0052)">
                    <path d="M88.9369239,196.4 C86.7369239,195.5 70.0369239,179.5 44.6369239,154.2 C0.336923934,109.9 0.436923934,110.1 0.536923934,99 C0.536923934,89.2 2.13692393,86.7 16.6369239,71.9 L30.0369239,58.3 L16.9369239,45.4 C9.63692393,38.2 3.03692393,30.7 1.93692393,28.4 C-3.76307607,16.8 3.73692393,2.7 16.3369239,1.3 C24.3369239,0.4 27.3369239,2.1 42.7369239,17.4 L56.9369239,31.4 L70.7369239,17.8 C86.3369239,2.2 89.8369239,0 99.9369239,0 C109.936924,0 113.436924,2.2 129.136924,17.8 L142.936924,31.4 L156.736924,17.8 C164.236924,10.3 171.736924,3.7 173.236924,3.1 C174.836924,2.5 178.336924,2 181.136924,2 C193.636924,2 202.236924,13.6 198.836924,25.8 C197.736924,29.8 195.536924,32.6 183.836924,44.5 L170.036924,58.5 L182.836924,71.5 C196.936924,85.9 198.936924,89.4 198.936924,100 C198.936924,110.3 197.636924,111.9 154.736924,154.7 C125.336924,184 114.336924,194.4 110.936924,195.9 C105.436924,198.4 94.1369239,198.7 88.9369239,196.4 Z M109.436924,192.6 C112.736924,191 118.036924,186.6 124.936924,179.6 L135.436924,168.9 L129.436924,171.4 C111.336924,178.7 88.6369239,178.8 70.8369239,171.6 L64.6369239,169.1 L68.5369239,173.2 C79.6369239,184.7 87.4369239,191.7 90.7369239,193.2 C96.0369239,195.7 103.436924,195.5 109.436924,192.6 Z M118.436924,171.5 C126.636924,169.3 139.236924,163 146.136924,157.5 C173.036924,136.4 181.936924,97.6 166.936924,66.8 C154.236924,40.7 128.636924,24.6 99.9369239,24.6995369 C88.0369239,24.8 78.9369239,26.6 69.5369239,30.9 C49.3369239,40 34.6369239,57 27.8369239,79 C24.4369239,89.8 24.4369239,108.2 27.8369239,119 C32.0369239,132.7 37.3369239,141.6 47.3369239,151.6 C59.2369239,163.4 70.3369239,169.4 86.4369239,172.6 C94.8369239,174.2 109.836924,173.7 118.436924,171.5 Z M27.5369239,128.8 C19.9369239,111.5 20.0369239,86.1 27.9369239,68.2 C30.0369239,63.5 29.9369239,63.6 18.8369239,74.5 C6.53692393,86.6 4.03692393,90.8 3.93692393,98.8 C3.93692393,107 6.03692393,110.5 18.2369239,122.8 C24.3369239,128.9 29.5369239,134 29.6369239,134 C29.7369239,134 28.7369239,131.6 27.5369239,128.8 Z M193.236924,109.5 C194.736924,106.6 195.336924,103.7 195.436924,99 C195.436924,90.4 193.036924,86.4 179.436924,73 L168.836924,62.5 L171.336924,68.2 C174.836924,76.2 176.936924,84.9 177.636924,94.6 C178.536924,107 176.736924,116.2 170.436924,132.5 C169.136924,135.8 190.936924,113.8 193.236924,109.5 Z M194.536924,27.8 C196.436924,24.2 196.336924,17.6 194.336924,13.4 C191.236924,6.8 183.036924,3.5 175.836924,5.9 C173.636924,6.6 167.636924,11.8 158.936924,20.5 L145.436924,34 L156.436924,45 L167.436924,56 L180.236924,43.3 C187.336924,36.2 193.736924,29.3 194.536924,27.8 Z M43.9369239,44.5 L54.4369239,33.9 L39.9369239,19.6 C24.3369239,4.2 22.2369239,3 14.9369239,5 C6.53692393,7.3 1.43692393,16.1 3.93692393,24.3 C4.93692393,27.6 7.93692393,31.3 18.3369239,41.7 C25.5369239,49 31.9369239,55 32.4369239,55 C33.0369239,55 38.2369239,50.3 43.9369239,44.5 Z M80.9369239,23.1 C84.8369239,22 90.4369239,21.5 100.436924,21.6 C114.736924,21.6 118.136924,22.3 133.436924,28.5 C134.536924,28.9 130.736924,24.5 124.936924,18.6 C113.536924,7 107.236924,3 100.536924,3 C91.8369239,3 89.2369239,4.5 76.4369239,17.1 L64.4369239,29.1 L69.9369239,26.9 C72.9369239,25.7 77.9369239,24 80.9369239,23.1 Z" id="形状"></path>
                    <path d="M86.5369239,160.4 C65.8369239,155.4 47.9369239,136.9 42.5369239,114.9 C40.3369239,105.9 40.4369239,92.1 42.9369239,82.6 C48.3369239,61.3 64.1369239,44.8 84.8369239,38.6 C91.7369239,36.6 106.536924,36.5 113.936924,38.5 C129.736924,42.7 144.636924,55.1 151.736924,70 C157.136924,81.5 159.336924,91.9 158.636924,102.9 C156.136924,141.8 121.936924,169 86.5369239,160.4 Z M107.436924,158 C128.936924,154.8 147.636924,137.1 153.436924,114.5 C155.436924,106.8 155.336924,91.5 153.336924,83.6 C149.236924,67.8 136.936924,52.4 122.936924,45.7 C115.636924,42.2 106.236924,39.8 107.136924,41.6 C111.936924,51.6 113.136924,55.2 113.636924,60.9 C114.436924,70.5 112.236924,77.7 101.836924,99.1 C91.9369239,119.8 89.5369239,127.7 90.5369239,137.5 C91.5369239,146.6 96.8369239,159.1 99.7369239,159.000596 C100.136924,159.000596 103.536924,158.5 107.436924,158 Z M90.5369239,149.9 C86.7369239,142.4 86.4369239,141.1 86.1369239,132.6 C85.6369239,121 87.9369239,113.7 98.0369239,94.2 C107.236924,76.2 109.336924,69.3 108.736924,58.7 C108.436924,53.1 107.536924,48.8 105.936924,45.1 L103.536924,39.7 L95.9369239,40.3 C71.4369239,42.2 50.8369239,61.1 45.4369239,86.5 C39.2369239,116 55.7369239,146.5 82.9369239,155.7 C86.5369239,156.9 90.6369239,158 92.0369239,158 L94.7369239,158 L90.5369239,149.9 Z" id="形状"></path>
                </g>
            </g>
        </g>
    </g>
</svg>